<?xml version="1.0" encoding="UTF-8"?>
<svg width="299px" height="279px" viewBox="0 0 299 279" version="1.1" xmlns="http://www.w3.org/2000/svg" xmlns:xlink="http://www.w3.org/1999/xlink">
    <!-- Generator: Sketch 52.6 (67491) - http://www.bohemiancoding.com/sketch -->
    <title>Group 2</title>
    <desc>Created with Sketch.</desc>
    <g id="Page-1" stroke="none" stroke-width="1" fill="none" fill-rule="evenodd" stroke-linejoin="round">
        <g id="Group-2" transform="translate(6.000000, 6.000000)">
            <path d="M141.378906,266.333984 C176.445313,260.789062 257.925781,229.229492 282.304688,131.714844 C296.402933,75.3224282 269.055664,0.522460937 184.279297,0.522460937 C144.57031,0.522460937 137.428711,0.522460937 102.404297,0.522460937 C34.8745339,0.522460937 1.66788019,50.4351763 0.549804687,102.032227 C-0.557705748,153.141719 32.0955625,205.935547 97.953125,205.935547 C133.437858,205.935547 164.698242,205.935547 184.279297,205.935547 C184.279297,224.00293 168.331055,244.140625 141.378906,266.333984 Z" id="Path" stroke="#1F2F50" stroke-width="13"></path>
            <path d="M197.689453,54.4052734 C201.975586,66.7246094 197.689453,54.4052734 201.975586,66.7246094 C201.975586,66.7246094 185.379883,69.7626953 186.829102,93.2705078 C186.829102,93.2705078 213.772461,98.2265625 207.874023,128.000977 C201.975586,157.775391 139.42763,161.915327 153.325195,97.6591797 C161.794017,58.5031233 197.689453,54.4052734 197.689453,54.4052734 Z" id="Path-2" stroke="#69B345" stroke-width="10"></path>
            <path d="M124.689453,54.4052734 C128.975586,66.7246094 124.689453,54.4052734 128.975586,66.7246094 C128.975586,66.7246094 112.379883,69.7626953 113.829102,93.2705078 C113.829102,93.2705078 140.772461,98.2265625 134.874023,128.000977 C128.975586,157.775391 66.4276305,161.915327 80.3251953,97.6591797 C88.7940167,58.5031233 124.689453,54.4052734 124.689453,54.4052734 Z" id="Path-2-Copy" stroke="#69B345" stroke-width="10"></path>
        </g>
    </g>
</svg>