<?xml version="1.0" encoding="UTF-8" standalone="no"?>
<svg
   xmlns:dc="http://purl.org/dc/elements/1.1/"
   xmlns:cc="http://creativecommons.org/ns#"
   xmlns:rdf="http://www.w3.org/1999/02/22-rdf-syntax-ns#"
   xmlns:svg="http://www.w3.org/2000/svg"
   xmlns="http://www.w3.org/2000/svg"
   xmlns:xlink="http://www.w3.org/1999/xlink"
   xmlns:sodipodi="http://sodipodi.sourceforge.net/DTD/sodipodi-0.dtd"
   xmlns:inkscape="http://www.inkscape.org/namespaces/inkscape"
   width="813px"
   height="142px"
   viewBox="0 0 813 142"
   version="1.1"
   id="svg33"
   sodipodi:docname="Horizontal Logo.svg"
   inkscape:version="1.0 (4035a4f, 2020-05-01)">
  <metadata
     id="metadata37">
    <rdf:RDF>
      <cc:Work
         rdf:about="">
        <dc:format>image/svg+xml</dc:format>
        <dc:type
           rdf:resource="http://purl.org/dc/dcmitype/StillImage" />
        <dc:title>Horizontal Logo</dc:title>
      </cc:Work>
    </rdf:RDF>
  </metadata>
  <sodipodi:namedview
     inkscape:document-rotation="0"
     pagecolor="#ffffff"
     bordercolor="#666666"
     borderopacity="1"
     objecttolerance="10"
     gridtolerance="10"
     guidetolerance="10"
     inkscape:pageopacity="0"
     inkscape:pageshadow="2"
     inkscape:window-width="2880"
     inkscape:window-height="1476"
     id="namedview35"
     showgrid="false"
     inkscape:zoom="1.295203"
     inkscape:cx="36.673791"
     inkscape:cy="71"
     inkscape:window-x="0"
     inkscape:window-y="341"
     inkscape:window-maximized="0"
     inkscape:current-layer="{" />
  <!-- Generator: Sketch 52.6 (67491) - http://www.bohemiancoding.com/sketch -->
  <title
     id="title10">Horizontal Logo</title>
  <desc
     id="desc12">Created with Sketch.</desc>
  <defs
     id="defs15">
    <path
       d="M95.6674805,130.000031 L111.821289,102.07605 L111.821289,116.200134 C111.815226,116.422791 111.85199,116.589294 111.93158,116.699646 C112.030966,116.837445 112.234152,116.90908 112.541138,116.914551 L127.411133,116.914551 C129.234945,116.914551 130.691976,116.461222 131.782227,115.554565 C132.872477,114.647909 133.438232,113.380046 133.479492,111.750977 L133.479492,102.374023 C133.479492,100.564453 132.865417,99.2133382 131.637268,98.3206787 C130.409119,97.4280192 129.000407,96.9870199 127.411133,96.9976807 L114.760315,96.9976807 L132.17334,66.8555908 L124.673828,84.2734375 L132.17334,84.2734375 C136.818685,84.2734375 140.657796,85.7076823 143.690674,88.5761719 C147.19955,91.8948596 148.958257,95.455732 148.966797,99.2587891 L148.966797,113.499695 C148.966797,115.690694 148.095764,117.724589 146.353699,119.601379 C144.611633,121.47817 142.395752,122.708862 139.706055,123.293457 C142.061547,123.408784 144.44383,124.476614 146.852905,126.496948 C149.012166,128.30778 150.091797,130.351603 150.091797,132.628418 L150.091797,149.435547 C150.091797,153.50765 148.64445,156.887817 145.749756,159.57605 C142.093914,162.971142 138.272543,164.697583 134.285645,164.755371 L97.4755859,164.755371 C96.8284276,164.589082 96.3863703,164.384004 96.1494141,164.140137 C95.9124578,163.896269 95.7518133,163.481068 95.6674805,162.894531 L95.6674805,130.000031 Z M112.464355,129.463135 C112.252068,129.457018 112.061984,129.550911 111.894104,129.744812 C111.726224,129.938713 111.65703,130.207573 111.686523,130.551392 L111.686523,150.43866 C111.662679,150.725159 111.731873,150.970642 111.894104,151.17511 C112.056335,151.379578 112.246419,151.481812 112.464355,151.481812 L130.214478,151.481812 C131.307495,151.329468 132.30367,150.773519 133.203003,149.813965 C134.102336,148.854411 134.533732,147.890381 134.497192,146.921875 L134.497192,134.105957 C134.59436,132.879232 134.162964,131.798747 133.203003,130.864502 C132.243042,129.930257 130.735596,129.463135 128.680664,129.463135 L112.464355,129.463135 Z"
       id="path-1" />
  </defs>
  <g
     id="Page-1"
     stroke="none"
     stroke-width="1"
     fill="none"
     fill-rule="evenodd">
    <g
       id="Horizontal-Logo"
       transform="translate(-1.442969, -43.000000)">
      <g
         id="Logo"
         transform="translate(0.088348, 0.676147)">
        <path
           d="M43.9047852,145.393555 L43.9047852,67.8254395 C43.9167818,67.3652768 44.0141125,66.9873065 44.1967773,66.6915283 C44.3685099,66.4134521 44.7695841,66.2744141 45.4,66.2744141 C58.5200748,66.2663966 65.2867415,66.2663966 65.7,66.2744141 C66.3198878,66.2864403 66.7926941,66.2744141 66.9,66.6915283 C66.9817928,67.0094694 67.0810441,67.3874397 67.1977539,67.8254395 L81.3,112.85791 L95.4,67.8254395 C95.525529,67.3475749 95.625529,66.9696045 95.7,66.6915283 C95.774471,66.4134521 96.174471,66.2744141 96.9,66.2744141 L117.2,66.2744141 C117.768083,66.2744141 118.168864,66.4134521 118.402344,66.6915283 C118.598514,66.9251682 118.697732,67.3031386 118.7,67.8254395 L118.7,84.4931641 L101.89,113.5 L101.89,84.4931641 C89.7379793,124.431071 83.374646,145.079102 82.8,146.437256 C82.225354,147.79541 78.9648722,153.457275 73.0185547,163.422852 C77.8873291,152.504557 80.2478109,146.958089 80.1,146.783447 C79.9040551,146.551934 79.8040551,146.436537 79.8,146.437256 L59.2075195,84.4931641 L59.2075195,145.393555 C59.2337505,146.114133 59.1761333,146.57743 59.034668,146.783447 C58.8932026,146.989464 58.5727273,147.076785 58.0732422,147.04541 L45.3481445,147.04541 C44.7667753,146.962538 44.3829863,146.814548 44.1967773,146.60144 C44.0105684,146.388333 43.9132377,145.985705 43.9047852,145.393555 Z"
           id="Path"
           fill="#1F2F50" />
        <mask
           id="mask-2"
           fill="white">
          <use
             xlink:href="#path-1"
             id="use18" />
        </mask>
        <path
           id="Combined-Shape"
           d="m 95.66748,130.00003 16.15381,-27.92398 v 14.12408 c -0.006,0.22266 0.0307,0.38916 0.11029,0.49952 0.0994,0.1378 0.30257,0.20943 0.60956,0.2149 h 14.86999 c 1.82381,0 3.28085,-0.45333 4.3711,-1.35999 1.09025,-0.90665 1.656,-2.17451 1.69726,-3.80358 v -9.37696 c 0,-1.80957 -0.61407,-3.160682 -1.84222,-4.053341 -1.22815,-0.89266 -2.63686,-1.333659 -4.22614,-1.322998 h -12.65081 l 17.41302,-30.14209 -7.49951,17.417846 h 7.49951 c 4.64534,0 8.48446,1.434245 11.51733,4.302735 3.50888,3.318688 5.26759,6.87956 5.27613,10.682617 V 113.4997 c 0,2.19099 -0.87104,4.22489 -2.6131,6.10168 -1.74207,1.87679 -3.95795,3.10748 -6.64765,3.69208 2.3555,0.11532 4.73778,1.18315 7.14685,3.20349 2.15927,1.81083 3.2389,3.85465 3.2389,6.13147 v 16.80713 c 0,4.0721 -1.44735,7.45227 -4.34204,10.1405 -3.65585,3.39509 -7.47722,5.12153 -11.46412,5.17932 H 97.475586 c -0.647158,-0.16629 -1.089216,-0.37137 -1.326172,-0.61523 -0.236956,-0.24387 -0.397601,-0.65907 -0.481934,-1.24561 z m 16.79687,-0.5369 c -0.21228,-0.006 -0.40237,0.0878 -0.57025,0.28168 -0.16788,0.1939 -0.23707,0.46276 -0.20758,0.80658 v 19.88727 c -0.0238,0.2865 0.0453,0.53198 0.20758,0.73645 0.16224,0.20447 0.35232,0.3067 0.57025,0.3067 h 17.75013 c 1.09301,-0.15234 2.08919,-0.70829 2.98852,-1.66785 0.89934,-0.95955 1.33073,-1.92358 1.29419,-2.89209 v -12.81591 c 0.0972,-1.22673 -0.33423,-2.30721 -1.29419,-3.24146 -0.95996,-0.93424 -2.4674,-1.40137 -4.52234,-1.40137 z"
           style="fill:#1f2f50" />
        <g
           aria-label="{"
           id="{"
           style="font-weight:normal;font-size:159px;font-family:Avenir-Book, Avenir;fill:#1f2f50">
          <path
             id="path41"
             d="M 2.4065657,108.76185 C 12.18332,108.62555 17.581568,98.015825 16.557566,89.224355 16.795346,78.332872 16.005897,67.374923 17.11655,56.537806 c 1.16432,-8.797407 9.900595,-14.653803 18.501514,-13.601953 2.590436,0.329439 6.490154,-0.650403 8.287502,0.472124 0,3.022626 0,6.045251 0,9.067876 -5.191184,0.529475 -12.05796,-1.804726 -15.452813,3.388687 -2.468989,7.356717 -0.999947,15.368838 -1.401187,23.027796 -0.460427,10.159507 2.138026,21.960704 -5.724,30.028514 -1.652365,3.81162 -13.2138186,4.16191 -4.611,6.042 9.010428,4.17075 10.967078,14.8574 10.335,23.80124 0.251579,10.17782 -0.605971,20.4412 0.665812,30.54695 1.462174,6.45488 8.885003,5.19727 13.893929,5.27681 4.001205,-1.03321 1.687646,4.24835 2.294259,6.60974 1.388742,4.25399 -3.048355,2.68215 -5.665493,2.93026 -7.734928,0.60393 -16.929367,-1.36448 -19.878851,-9.56484 -3.056348,-8.59133 -1.358871,-17.89413 -1.803656,-26.83451 -0.409872,-8.81735 1.973536,-19.30531 -5.542641,-25.89635 -4.0414918,-3.68102 -10.67662555,-2.22034 -8.6083593,-9.19579 0,-1.29151 0,-2.58301 0,-3.87451 z" />
        </g>
        <g
           aria-label="}"
           id="}"
           style="font-weight:normal;font-size:159px;font-family:Avenir-Book, Avenir;fill:#1f2f50">
          <path
             id="path44"
             d="m 191.58947,118.30185 c -9.63509,0.0497 -15.13095,10.36248 -14.151,19.06537 -0.23971,11.04877 0.55463,22.16433 -0.55898,33.15868 -1.15212,8.8049 -9.92498,14.59876 -18.50152,13.60195 -2.59043,-0.32944 -6.49015,0.6504 -8.2875,-0.47212 0,-3.02263 0,-6.04525 0,-9.06788 5.16474,-0.52192 11.98468,1.79303 15.35344,-3.38869 2.63127,-7.34087 1.07961,-15.36516 1.50056,-23.02779 0.52337,-9.62138 -2.0285,-20.48522 4.48181,-28.64721 0.94237,-4.50635 14.93365,-5.61205 5.85319,-7.26431 -9.00369,-4.0618 -10.98204,-14.61623 -10.335,-23.488116 -0.19291,-9.98876 0.45438,-20.029824 -0.477,-29.975631 -0.57328,-5.973231 -6.93371,-6.788603 -11.72212,-6.32025 -3.66894,0.700941 -5.63647,-0.29953 -4.65488,-4.249119 -0.0356,-2.900842 -0.93174,-6.662236 3.30487,-5.290881 7.51631,-0.211431 16.58171,-0.2832 20.94263,7.0755 4.83314,8.328302 2.57049,18.277797 3.1005,27.435356 0.56407,8.979175 -2.06658,19.220971 4.293,26.704141 3.24632,5.04016 12.13208,2.3985 9.858,9.80437 0,1.44888 0,2.89775 0,4.34663 z" />
        </g>
      </g>
      <path
         d="M226.282817,67.1203037 L241.066817,67.1203037 L255.619817,105.312304 L270.326817,67.1203037 L284.956817,67.1203037 L284.956817,121.636304 L275.716817,121.636304 L275.716817,76.3603037 L275.562817,76.3603037 L259.007817,121.636304 L252.231817,121.636304 L235.676817,76.3603037 L235.522817,76.3603037 L235.522817,121.636304 L226.282817,121.636304 L226.282817,67.1203037 Z M296.660817,84.6763037 L305.900817,84.6763037 L305.900817,121.636304 L296.660817,121.636304 L296.660817,84.6763037 Z M295.351817,72.1253037 C295.351817,70.6366296 295.903645,69.3404759 297.007317,68.2368037 C298.110989,67.1331315 299.509809,66.5813037 301.203817,66.5813037 C302.897826,66.5813037 304.322311,67.1074651 305.477317,68.1598037 C306.632323,69.2121423 307.209817,70.5339624 307.209817,72.1253037 C307.209817,73.716645 306.632323,75.0384651 305.477317,76.0908037 C304.322311,77.1431423 302.897826,77.6693037 301.203817,77.6693037 C299.509809,77.6693037 298.110989,77.1174759 297.007317,76.0138037 C295.903645,74.9101315 295.351817,73.6139778 295.351817,72.1253037 Z M312.214817,92.5303037 L312.214817,84.6763037 L319.837817,84.6763037 L319.837817,73.9733037 L329.077817,73.9733037 L329.077817,84.6763037 L339.241817,84.6763037 L339.241817,92.5303037 L329.077817,92.5303037 L329.077817,108.700304 C329.077817,110.548313 329.424314,112.011298 330.117317,113.089304 C330.810321,114.167309 332.183474,114.706304 334.236817,114.706304 C335.058155,114.706304 335.956479,114.616471 336.931817,114.436804 C337.907155,114.257136 338.677148,113.961972 339.241817,113.551304 L339.241817,121.328304 C338.266479,121.790306 337.072991,122.111136 335.661317,122.290804 C334.249643,122.470471 333.004823,122.560304 331.926817,122.560304 C329.462805,122.560304 327.447992,122.290806 325.882317,121.751804 C324.316643,121.212801 323.084655,120.391476 322.186317,119.287804 C321.287979,118.184132 320.671985,116.810979 320.338317,115.168304 C320.004649,113.525629 319.837817,111.626314 319.837817,109.470304 L319.837817,92.5303037 L312.214817,92.5303037 Z M371.735817,95.7643037 C370.657812,94.6349647 369.52849,93.7366404 368.347817,93.0693037 C367.167145,92.401967 365.960823,92.0683037 364.728817,92.0683037 C363.034809,92.0683037 361.52049,92.3763006 360.185817,92.9923037 C358.851144,93.6083068 357.708989,94.4296319 356.759317,95.4563037 C355.809646,96.4829755 355.090986,97.6636304 354.603317,98.9983037 C354.115648,100.332977 353.871817,101.718963 353.871817,103.156304 C353.871817,104.593644 354.115648,105.97963 354.603317,107.314304 C355.090986,108.648977 355.809646,109.829632 356.759317,110.856304 C357.708989,111.882976 358.851144,112.704301 360.185817,113.320304 C361.52049,113.936307 363.034809,114.244304 364.728817,114.244304 C366.166158,114.244304 367.500811,113.94914 368.732817,113.358804 C369.964823,112.768467 371.017146,111.908643 371.889817,110.779304 L378.049817,117.401304 C377.125813,118.325308 376.060657,119.120967 374.854317,119.788304 C373.647978,120.45564 372.428823,120.994635 371.196817,121.405304 C369.964811,121.815972 368.784156,122.111136 367.654817,122.290804 C366.525478,122.470471 365.550155,122.560304 364.728817,122.560304 C361.956803,122.560304 359.338829,122.098308 356.874817,121.174304 C354.410805,120.250299 352.280493,118.941312 350.483817,117.247304 C348.687141,115.553295 347.262656,113.512816 346.210317,111.125804 C345.157979,108.738792 344.631817,106.082318 344.631817,103.156304 C344.631817,100.230289 345.157979,97.5738156 346.210317,95.1868037 C347.262656,92.7997918 348.687141,90.7593122 350.483817,89.0653037 C352.280493,87.3712952 354.410805,86.0623083 356.874817,85.1383037 C359.338829,84.2142991 361.956803,83.7523037 364.728817,83.7523037 C367.090162,83.7523037 369.464305,84.2014659 371.851317,85.0998037 C374.238329,85.9981415 376.330141,87.4226273 378.126817,89.3733037 L371.735817,95.7643037 Z M392.833817,89.8353037 L392.987817,89.8353037 C393.706487,88.295296 394.976975,86.8964767 396.799317,85.6388037 C398.62166,84.3811308 400.970136,83.7523037 403.844817,83.7523037 C406.308829,83.7523037 408.400642,84.1629663 410.120317,84.9843037 C411.839992,85.8056412 413.238812,86.8836304 414.316817,88.2183037 C415.394823,89.5529771 416.164815,91.0929617 416.626817,92.8383037 C417.088819,94.5836458 417.319817,96.4059609 417.319817,98.3053037 L417.319817,121.636304 L408.079817,121.636304 L408.079817,102.925304 C408.079817,101.898632 408.028484,100.756477 407.925817,99.4988037 C407.82315,98.2411308 407.553653,97.0604759 407.117317,95.9568037 C406.680982,94.8531315 406.000822,93.9291408 405.076817,93.1848037 C404.152813,92.4404667 402.895158,92.0683037 401.303817,92.0683037 C399.763809,92.0683037 398.467656,92.3249678 397.415317,92.8383037 C396.362979,93.3516396 395.490321,94.0446327 394.797317,94.9173037 C394.104314,95.7899747 393.603819,96.7909647 393.295817,97.9203037 C392.987816,99.0496427 392.833817,100.230298 392.833817,101.462304 L392.833817,121.636304 L383.593817,121.636304 L383.593817,63.4243037 L392.833817,63.4243037 L392.833817,89.8353037 Z M435.183817,106.390304 C435.491819,109.162318 436.569808,111.318296 438.417817,112.858304 C440.265826,114.398311 442.498804,115.168304 445.116817,115.168304 C447.426829,115.168304 449.364643,114.693475 450.930317,113.743804 C452.495992,112.794132 453.869145,111.600644 455.049817,110.163304 L461.671817,115.168304 C459.515806,117.83765 457.103164,119.736965 454.433817,120.866304 C451.76447,121.995643 448.966832,122.560304 446.040817,122.560304 C443.268803,122.560304 440.650829,122.098308 438.186817,121.174304 C435.722805,120.250299 433.592493,118.941312 431.795817,117.247304 C429.999141,115.553295 428.574656,113.512816 427.522317,111.125804 C426.469979,108.738792 425.943817,106.082318 425.943817,103.156304 C425.943817,100.230289 426.469979,97.5738156 427.522317,95.1868037 C428.574656,92.7997918 429.999141,90.7593122 431.795817,89.0653037 C433.592493,87.3712952 435.722805,86.0623083 438.186817,85.1383037 C440.650829,84.2142991 443.268803,83.7523037 446.040817,83.7523037 C448.607497,83.7523037 450.955973,84.2014659 453.086317,85.0998037 C455.216661,85.9981415 457.038976,87.2942952 458.553317,88.9883037 C460.067658,90.6823122 461.248313,92.7741246 462.095317,95.2638037 C462.942321,97.7534828 463.365817,100.615288 463.365817,103.849304 L463.365817,106.390304 L435.183817,106.390304 Z M454.125817,99.4603037 C454.074484,96.7396234 453.227492,94.5964782 451.584817,93.0308037 C449.942142,91.4651292 447.657832,90.6823037 444.731817,90.6823037 C441.959803,90.6823037 439.765325,91.4779624 438.148317,93.0693037 C436.531309,94.660645 435.543152,96.790957 435.183817,99.4603037 L454.125817,99.4603037 Z M472.143817,63.4243037 L481.383817,63.4243037 L481.383817,121.636304 L472.143817,121.636304 L472.143817,63.4243037 Z M492.163817,63.4243037 L501.403817,63.4243037 L501.403817,121.636304 L492.163817,121.636304 L492.163817,63.4243037 Z M535.668817,67.1203037 L556.920817,67.1203037 C558.974161,67.1203037 561.001807,67.3641346 563.003817,67.8518037 C565.005827,68.3394728 566.789643,69.1351315 568.355317,70.2388037 C569.920992,71.3424759 571.191479,72.7669617 572.166817,74.5123037 C573.142155,76.2576458 573.629817,78.3622914 573.629817,80.8263037 C573.629817,83.9063191 572.757159,86.4472937 571.011817,88.4493037 C569.266475,90.4513137 566.982165,91.8886327 564.158817,92.7613037 L564.158817,92.9153037 C565.852826,93.1206381 567.43131,93.5954667 568.894317,94.3398037 C570.357324,95.0841408 571.602145,96.0337979 572.628817,97.1888037 C573.655489,98.3438095 574.463981,99.6784628 575.054317,101.192804 C575.644653,102.707145 575.939817,104.336962 575.939817,106.082304 C575.939817,109.059652 575.34949,111.53646 574.168817,113.512804 C572.988145,115.489147 571.435327,117.080464 569.510317,118.286804 C567.585308,119.493143 565.377996,120.352968 562.888317,120.866304 C560.398638,121.37964 557.870497,121.636304 555.303817,121.636304 L535.668817,121.636304 L535.668817,67.1203037 Z M545.370817,89.2963037 L554.225817,89.2963037 C557.459833,89.2963037 559.885309,88.6674767 561.502317,87.4098037 C563.119325,86.1521308 563.927817,84.4966473 563.927817,82.4433037 C563.927817,80.0819586 563.093659,78.3238095 561.425317,77.1688037 C559.756975,76.0137979 557.074836,75.4363037 553.378817,75.4363037 L545.370817,75.4363037 L545.370817,89.2963037 Z M545.370817,113.320304 L554.302817,113.320304 C555.534823,113.320304 556.856643,113.243304 558.268317,113.089304 C559.679991,112.935303 560.976145,112.575973 562.156817,112.011304 C563.33749,111.446634 564.312813,110.638142 565.082817,109.585804 C565.852821,108.533465 566.237817,107.108979 566.237817,105.312304 C566.237817,102.437623 565.300993,100.435643 563.427317,99.3063037 C561.553641,98.1769647 558.640504,97.6123037 554.687817,97.6123037 L545.370817,97.6123037 L545.370817,113.320304 Z M592.109817,106.390304 C592.417819,109.162318 593.495808,111.318296 595.343817,112.858304 C597.191826,114.398311 599.424804,115.168304 602.042817,115.168304 C604.352829,115.168304 606.290643,114.693475 607.856317,113.743804 C609.421992,112.794132 610.795145,111.600644 611.975817,110.163304 L618.597817,115.168304 C616.441806,117.83765 614.029164,119.736965 611.359817,120.866304 C608.69047,121.995643 605.892832,122.560304 602.966817,122.560304 C600.194803,122.560304 597.576829,122.098308 595.112817,121.174304 C592.648805,120.250299 590.518493,118.941312 588.721817,117.247304 C586.925141,115.553295 585.500656,113.512816 584.448317,111.125804 C583.395979,108.738792 582.869817,106.082318 582.869817,103.156304 C582.869817,100.230289 583.395979,97.5738156 584.448317,95.1868037 C585.500656,92.7997918 586.925141,90.7593122 588.721817,89.0653037 C590.518493,87.3712952 592.648805,86.0623083 595.112817,85.1383037 C597.576829,84.2142991 600.194803,83.7523037 602.966817,83.7523037 C605.533497,83.7523037 607.881973,84.2014659 610.012317,85.0998037 C612.142661,85.9981415 613.964976,87.2942952 615.479317,88.9883037 C616.993658,90.6823122 618.174313,92.7741246 619.021317,95.2638037 C619.868321,97.7534828 620.291817,100.615288 620.291817,103.849304 L620.291817,106.390304 L592.109817,106.390304 Z M611.051817,99.4603037 C611.000484,96.7396234 610.153492,94.5964782 608.510817,93.0308037 C606.868142,91.4651292 604.583832,90.6823037 601.657817,90.6823037 C598.885803,90.6823037 596.691325,91.4779624 595.074317,93.0693037 C593.457309,94.660645 592.469152,96.790957 592.109817,99.4603037 L611.051817,99.4603037 Z M628.915817,84.6763037 L637.693817,84.6763037 L637.693817,90.6053037 L637.847817,90.6053037 C638.720488,88.7572945 640.055141,87.1531438 641.851817,85.7928037 C643.648493,84.4324636 646.086802,83.7523037 649.166817,83.7523037 C651.630829,83.7523037 653.722642,84.1629663 655.442317,84.9843037 C657.161992,85.8056412 658.560812,86.8836304 659.638817,88.2183037 C660.716823,89.5529771 661.486815,91.0929617 661.948817,92.8383037 C662.410819,94.5836458 662.641817,96.4059609 662.641817,98.3053037 L662.641817,121.636304 L653.401817,121.636304 L653.401817,102.925304 C653.401817,101.898632 653.350484,100.756477 653.247817,99.4988037 C653.14515,98.2411308 652.875653,97.0604759 652.439317,95.9568037 C652.002982,94.8531315 651.322822,93.9291408 650.398817,93.1848037 C649.474813,92.4404667 648.217158,92.0683037 646.625817,92.0683037 C645.085809,92.0683037 643.789656,92.3249678 642.737317,92.8383037 C641.684979,93.3516396 640.812321,94.0446327 640.119317,94.9173037 C639.426314,95.7899747 638.925819,96.7909647 638.617817,97.9203037 C638.309816,99.0496427 638.155817,100.230298 638.155817,101.462304 L638.155817,121.636304 L628.915817,121.636304 L628.915817,84.6763037 Z M673.113817,84.6763037 L681.891817,84.6763037 L681.891817,90.6053037 L682.045817,90.6053037 C682.918488,88.7572945 684.253141,87.1531438 686.049817,85.7928037 C687.846493,84.4324636 690.284802,83.7523037 693.364817,83.7523037 C695.828829,83.7523037 697.920642,84.1629663 699.640317,84.9843037 C701.359992,85.8056412 702.758812,86.8836304 703.836817,88.2183037 C704.914823,89.5529771 705.684815,91.0929617 706.146817,92.8383037 C706.608819,94.5836458 706.839817,96.4059609 706.839817,98.3053037 L706.839817,121.636304 L697.599817,121.636304 L697.599817,102.925304 C697.599817,101.898632 697.548484,100.756477 697.445817,99.4988037 C697.34315,98.2411308 697.073653,97.0604759 696.637317,95.9568037 C696.200982,94.8531315 695.520822,93.9291408 694.596817,93.1848037 C693.672813,92.4404667 692.415158,92.0683037 690.823817,92.0683037 C689.283809,92.0683037 687.987656,92.3249678 686.935317,92.8383037 C685.882979,93.3516396 685.010321,94.0446327 684.317317,94.9173037 C683.624314,95.7899747 683.123819,96.7909647 682.815817,97.9203037 C682.507816,99.0496427 682.353817,100.230298 682.353817,101.462304 L682.353817,121.636304 L673.113817,121.636304 L673.113817,84.6763037 Z M724.703817,106.390304 C725.011819,109.162318 726.089808,111.318296 727.937817,112.858304 C729.785826,114.398311 732.018804,115.168304 734.636817,115.168304 C736.946829,115.168304 738.884643,114.693475 740.450317,113.743804 C742.015992,112.794132 743.389145,111.600644 744.569817,110.163304 L751.191817,115.168304 C749.035806,117.83765 746.623164,119.736965 743.953817,120.866304 C741.28447,121.995643 738.486832,122.560304 735.560817,122.560304 C732.788803,122.560304 730.170829,122.098308 727.706817,121.174304 C725.242805,120.250299 723.112493,118.941312 721.315817,117.247304 C719.519141,115.553295 718.094656,113.512816 717.042317,111.125804 C715.989979,108.738792 715.463817,106.082318 715.463817,103.156304 C715.463817,100.230289 715.989979,97.5738156 717.042317,95.1868037 C718.094656,92.7997918 719.519141,90.7593122 721.315817,89.0653037 C723.112493,87.3712952 725.242805,86.0623083 727.706817,85.1383037 C730.170829,84.2142991 732.788803,83.7523037 735.560817,83.7523037 C738.127497,83.7523037 740.475973,84.2014659 742.606317,85.0998037 C744.736661,85.9981415 746.558976,87.2942952 748.073317,88.9883037 C749.587658,90.6823122 750.768313,92.7741246 751.615317,95.2638037 C752.462321,97.7534828 752.885817,100.615288 752.885817,103.849304 L752.885817,106.390304 L724.703817,106.390304 Z M743.645817,99.4603037 C743.594484,96.7396234 742.747492,94.5964782 741.104817,93.0308037 C739.462142,91.4651292 737.177832,90.6823037 734.251817,90.6823037 C731.479803,90.6823037 729.285325,91.4779624 727.668317,93.0693037 C726.051309,94.660645 725.063152,96.790957 724.703817,99.4603037 L743.645817,99.4603037 Z M757.197817,92.5303037 L757.197817,84.6763037 L764.820817,84.6763037 L764.820817,73.9733037 L774.060817,73.9733037 L774.060817,84.6763037 L784.224817,84.6763037 L784.224817,92.5303037 L774.060817,92.5303037 L774.060817,108.700304 C774.060817,110.548313 774.407314,112.011298 775.100317,113.089304 C775.793321,114.167309 777.166474,114.706304 779.219817,114.706304 C780.041155,114.706304 780.939479,114.616471 781.914817,114.436804 C782.890155,114.257136 783.660148,113.961972 784.224817,113.551304 L784.224817,121.328304 C783.249479,121.790306 782.055991,122.111136 780.644317,122.290804 C779.232643,122.470471 777.987823,122.560304 776.909817,122.560304 C774.445805,122.560304 772.430992,122.290806 770.865317,121.751804 C769.299643,121.212801 768.067655,120.391476 767.169317,119.287804 C766.270979,118.184132 765.654985,116.810979 765.321317,115.168304 C764.987649,113.525629 764.820817,111.626314 764.820817,109.470304 L764.820817,92.5303037 L757.197817,92.5303037 Z M787.150817,92.5303037 L787.150817,84.6763037 L794.773817,84.6763037 L794.773817,73.9733037 L804.013817,73.9733037 L804.013817,84.6763037 L814.177817,84.6763037 L814.177817,92.5303037 L804.013817,92.5303037 L804.013817,108.700304 C804.013817,110.548313 804.360314,112.011298 805.053317,113.089304 C805.746321,114.167309 807.119474,114.706304 809.172817,114.706304 C809.994155,114.706304 810.892479,114.616471 811.867817,114.436804 C812.843155,114.257136 813.613148,113.961972 814.177817,113.551304 L814.177817,121.328304 C813.202479,121.790306 812.008991,122.111136 810.597317,122.290804 C809.185643,122.470471 807.940823,122.560304 806.862817,122.560304 C804.398805,122.560304 802.383992,122.290806 800.818317,121.751804 C799.252643,121.212801 798.020655,120.391476 797.122317,119.287804 C796.223979,118.184132 795.607985,116.810979 795.274317,115.168304 C794.940649,113.525629 794.773817,111.626314 794.773817,109.470304 L794.773817,92.5303037 L787.150817,92.5303037 Z"
         id="Mitchell-Bennett"
         fill="#1F2F50" />
      <path
         d="M226.219012,142.196547 L230.773012,142.196547 L235.162012,159.026547 L235.228012,159.026547 L240.475012,142.196547 L244.567012,142.196547 L249.715012,159.026547 L249.781012,159.026547 L254.368012,142.196547 L258.592012,142.196547 L251.794012,165.560547 L247.834012,165.560547 L242.422012,147.773547 L242.356012,147.773547 L236.944012,165.560547 L233.116012,165.560547 L226.219012,142.196547 Z M279.525012,142.196547 L295.002012,142.196547 L295.002012,145.958547 L283.683012,145.958547 L283.683012,151.700547 L294.408012,151.700547 L294.408012,155.462547 L283.683012,155.462547 L283.683012,161.798547 L295.596012,161.798547 L295.596012,165.560547 L279.525012,165.560547 L279.525012,142.196547 Z M318.014012,142.196547 L327.122012,142.196547 C328.002017,142.196547 328.871008,142.301046 329.729012,142.510047 C330.587017,142.719048 331.351509,143.060045 332.022512,143.533047 C332.693516,144.006049 333.23801,144.616543 333.656012,145.364547 C334.074015,146.112551 334.283012,147.014542 334.283012,148.070547 C334.283012,149.390553 333.909016,150.479543 333.161012,151.337547 C332.413009,152.195551 331.434019,152.811545 330.224012,153.185547 L330.224012,153.251547 C330.950016,153.339547 331.626509,153.543045 332.253512,153.862047 C332.880516,154.181048 333.41401,154.588044 333.854012,155.083047 C334.294015,155.578049 334.640511,156.150044 334.893512,156.799047 C335.146514,157.44805 335.273012,158.146543 335.273012,158.894547 C335.273012,160.170553 335.020015,161.232043 334.514012,162.079047 C334.00801,162.926051 333.342517,163.608044 332.517512,164.125047 C331.692508,164.642049 330.746518,165.010546 329.679512,165.230547 C328.612507,165.450548 327.529018,165.560547 326.429012,165.560547 L318.014012,165.560547 L318.014012,142.196547 Z M322.172012,151.700547 L325.967012,151.700547 C327.353019,151.700547 328.392509,151.43105 329.085512,150.892047 C329.778516,150.353044 330.125012,149.643551 330.125012,148.763547 C330.125012,147.751542 329.767516,146.998049 329.052512,146.503047 C328.337509,146.008044 327.18802,145.760547 325.604012,145.760547 L322.172012,145.760547 L322.172012,151.700547 Z M322.172012,161.996547 L326.000012,161.996547 C326.528015,161.996547 327.094509,161.963547 327.699512,161.897547 C328.304515,161.831547 328.86001,161.677548 329.366012,161.435547 C329.872015,161.193546 330.290011,160.847049 330.620012,160.396047 C330.950014,159.945045 331.115012,159.334551 331.115012,158.564547 C331.115012,157.332541 330.713516,156.474549 329.910512,155.990547 C329.107508,155.506544 327.859021,155.264547 326.165012,155.264547 L322.172012,155.264547 L322.172012,161.996547 Z M385.818012,142.196547 L395.025012,142.196547 C396.56502,142.196547 398.050005,142.433045 399.480012,142.906047 C400.91002,143.379049 402.175007,144.099542 403.275012,145.067547 C404.375018,146.035552 405.255009,147.25104 405.915012,148.714047 C406.575016,150.177054 406.905012,151.898537 406.905012,153.878547 C406.905012,155.880557 406.525516,157.61304 405.766512,159.076047 C405.007509,160.539054 404.028518,161.749042 402.829512,162.706047 C401.630506,163.663052 400.29952,164.378045 398.836512,164.851047 C397.373505,165.324049 395.938019,165.560547 394.530012,165.560547 L385.818012,165.560547 L385.818012,142.196547 Z M393.078012,161.798547 C394.376019,161.798547 395.602507,161.650048 396.757512,161.353047 C397.912518,161.056045 398.919008,160.59405 399.777012,159.967047 C400.635017,159.340044 401.31151,158.526052 401.806512,157.525047 C402.301515,156.524042 402.549012,155.308554 402.549012,153.878547 C402.549012,152.47054 402.329015,151.260552 401.889012,150.248547 C401.44901,149.236542 400.838516,148.41705 400.057512,147.790047 C399.276509,147.163044 398.352518,146.701048 397.285512,146.404047 C396.218507,146.107045 395.047019,145.958547 393.771012,145.958547 L389.976012,145.958547 L389.976012,161.798547 L393.078012,161.798547 Z M429.191012,142.196547 L444.668012,142.196547 L444.668012,145.958547 L433.349012,145.958547 L433.349012,151.700547 L444.074012,151.700547 L444.074012,155.462547 L433.349012,155.462547 L433.349012,161.798547 L445.262012,161.798547 L445.262012,165.560547 L429.191012,165.560547 L429.191012,142.196547 Z M464.974012,142.196547 L469.759012,142.196547 L476.128012,159.851547 L482.695012,142.196547 L487.183012,142.196547 L477.745012,165.560547 L474.148012,165.560547 L464.974012,142.196547 Z M508.017012,142.196547 L523.494012,142.196547 L523.494012,145.958547 L512.175012,145.958547 L512.175012,151.700547 L522.900012,151.700547 L522.900012,155.462547 L512.175012,155.462547 L512.175012,161.798547 L524.088012,161.798547 L524.088012,165.560547 L508.017012,165.560547 L508.017012,142.196547 Z M546.506012,142.196547 L550.664012,142.196547 L550.664012,161.798547 L560.597012,161.798547 L560.597012,165.560547 L546.506012,165.560547 L546.506012,142.196547 Z M580.705012,153.977547 C580.705012,152.107538 581.013009,150.408055 581.629012,148.879047 C582.245016,147.350039 583.097507,146.046552 584.186512,144.968547 C585.275518,143.890541 586.573505,143.06005 588.080512,142.477047 C589.58752,141.894044 591.243003,141.602547 593.047012,141.602547 C594.873022,141.580547 596.545005,141.850044 598.063012,142.411047 C599.58102,142.97205 600.890007,143.791541 601.990012,144.869547 C603.090018,145.947552 603.948009,147.245539 604.564012,148.763547 C605.180016,150.281554 605.488012,151.975538 605.488012,153.845547 C605.488012,155.671556 605.180016,157.332539 604.564012,158.828547 C603.948009,160.324554 603.090018,161.611541 601.990012,162.689547 C600.890007,163.767552 599.58102,164.609044 598.063012,165.214047 C596.545005,165.81905 594.873022,166.132547 593.047012,166.154547 C591.243003,166.154547 589.58752,165.86305 588.080512,165.280047 C586.573505,164.697044 585.275518,163.872052 584.186512,162.805047 C583.097507,161.738042 582.245016,160.456554 581.629012,158.960547 C581.013009,157.464539 580.705012,155.803556 580.705012,153.977547 Z M585.061012,153.713547 C585.061012,154.967553 585.253511,156.122542 585.638512,157.178547 C586.023514,158.234552 586.568009,159.147543 587.272012,159.917547 C587.976016,160.687551 588.817508,161.292545 589.796512,161.732547 C590.775517,162.172549 591.870006,162.392547 593.080012,162.392547 C594.290019,162.392547 595.390008,162.172549 596.380012,161.732547 C597.370017,161.292545 598.217009,160.687551 598.921012,159.917547 C599.625016,159.147543 600.169511,158.234552 600.554512,157.178547 C600.939514,156.122542 601.132012,154.967553 601.132012,153.713547 C601.132012,152.547541 600.939514,151.458552 600.554512,150.446547 C600.169511,149.434542 599.625016,148.549051 598.921012,147.790047 C598.217009,147.031043 597.370017,146.437049 596.380012,146.008047 C595.390008,145.579045 594.290019,145.364547 593.080012,145.364547 C591.870006,145.364547 590.775517,145.579045 589.796512,146.008047 C588.817508,146.437049 587.976016,147.031043 587.272012,147.790047 C586.568009,148.549051 586.023514,149.434542 585.638512,150.446547 C585.253511,151.458552 585.061012,152.547541 585.061012,153.713547 Z M627.774012,142.196547 L635.628012,142.196547 C636.750018,142.196547 637.833507,142.306546 638.878512,142.526547 C639.923518,142.746548 640.842008,143.115044 641.634012,143.632047 C642.426016,144.149049 643.05851,144.842043 643.531512,145.711047 C644.004515,146.580051 644.241012,147.66354 644.241012,148.961547 C644.241012,150.435554 643.988015,151.623542 643.482012,152.525547 C642.97601,153.427551 642.294017,154.126044 641.436012,154.621047 C640.578008,155.116049 639.582518,155.451546 638.449512,155.627547 C637.316507,155.803548 636.134019,155.891547 634.902012,155.891547 L631.932012,155.891547 L631.932012,165.560547 L627.774012,165.560547 L627.774012,142.196547 Z M634.440012,152.327547 C635.034015,152.327547 635.650009,152.305547 636.288012,152.261547 C636.926016,152.217547 637.51451,152.085548 638.053512,151.865547 C638.592515,151.645546 639.032511,151.315549 639.373512,150.875547 C639.714514,150.435545 639.885012,149.819551 639.885012,149.027547 C639.885012,148.301543 639.731014,147.724049 639.423012,147.295047 C639.115011,146.866045 638.719015,146.536048 638.235012,146.305047 C637.75101,146.074046 637.212015,145.925547 636.618012,145.859547 C636.024009,145.793547 635.452015,145.760547 634.902012,145.760547 L631.932012,145.760547 L631.932012,152.327547 L634.440012,152.327547 Z M666.362012,142.196547 L672.698012,142.196547 L678.935012,158.564547 L685.238012,142.196547 L691.508012,142.196547 L691.508012,165.560547 L687.548012,165.560547 L687.548012,146.156547 L687.482012,146.156547 L680.387012,165.560547 L677.483012,165.560547 L670.388012,146.156547 L670.322012,146.156547 L670.322012,165.560547 L666.362012,165.560547 L666.362012,142.196547 Z M715.147012,142.196547 L730.624012,142.196547 L730.624012,145.958547 L719.305012,145.958547 L719.305012,151.700547 L730.030012,151.700547 L730.030012,155.462547 L719.305012,155.462547 L719.305012,161.798547 L731.218012,161.798547 L731.218012,165.560547 L715.147012,165.560547 L715.147012,142.196547 Z M753.636012,142.196547 L759.147012,142.196547 L770.466012,159.554547 L770.532012,159.554547 L770.532012,142.196547 L774.690012,142.196547 L774.690012,165.560547 L769.410012,165.560547 L757.860012,147.641547 L757.794012,147.641547 L757.794012,165.560547 L753.636012,165.560547 L753.636012,142.196547 Z M803.015012,145.958547 L795.854012,145.958547 L795.854012,142.196547 L814.334012,142.196547 L814.334012,145.958547 L807.173012,145.958547 L807.173012,165.560547 L803.015012,165.560547 L803.015012,145.958547 Z"
         id="WEB-DEVELOPMENT"
         fill="#1F2F50" />
    </g>
  </g>
</svg>
